# xmcd
#
# Track frame offsets:
#	150
#	19401
#	39833
#	54981
#	75583
#	93213
#	110975
#	125590
#	146177
#	168483
#	187553
#	210453
#	239292
#	257276
#	278817
#	298489
#	318834
#
# Disc length: 4584 seconds
#
# Revision: 0
# Processed by: cddbd v1.5.1PL0 Copyright (c) Steve Scherf et al.
# Submitted via: dBpowerAMP V4.0
#
DISCID=ec11e611
DTITLE=Lam Hung, Uyen Thanh - The Best of Lam Hung and Uyen Thanh
DYEAR=1900
DGENRE=
TTITLE0=Lam Hung - Cuoc Tinh Da Mat
TTITLE1=Uyen Thanh - Khuc Tinh Gian Doi
TTITLE2=Lam Hung - Den Voi Anh Dem Nay
TTITLE3=Uyen Thanh - Dau Tinh Phai
TTITLE4=Lam Hung - Toi Da Lam Yeu Em
TTITLE5=Uyen Thanh - Uoc Mong
TTITLE6=Lam Hung - Yeu Trong Noi Co Don
TTITLE7=Uyen Thanh - Tinh Xua Con Dau
TTITLE8=Lam Hung - Lanh Cam
TTITLE9=Uyen Thanh - Tinh Mong Manh
TTITLE10=Lam Hung - Xin Quay Got Am Tham
TTITLE11=Uyen Thanh - Dau Chon Tinh Xau
TTITLE12=Lam Hung - Tinh Be Tho
TTITLE13=Uyen Thanh - Chi Co Em Trong Doi
TTITLE14=Lam Hung - Phi Truong Phuc Biet Ly
TTITLE15=Uyen Thanh - Tinh La Tho
TTITLE16=Lam Hung - Tinh Xa Vang
EXTD=
EXTT0=
EXTT1=
EXTT2=
EXTT3=
EXTT4=
EXTT5=
EXTT6=
EXTT7=
EXTT8=
EXTT9=
EXTT10=
EXTT11=
EXTT12=
EXTT13=
EXTT14=
EXTT15=
EXTT16=
PLAYORDER=
